<?xml version="1.0" encoding="utf-8"?>
<!-- Generator: Adobe Illustrator 16.0.3, SVG Export Plug-In . SVG Version: 6.00 Build 0)  -->
<!DOCTYPE svg PUBLIC "-//W3C//DTD SVG 1.1//EN" "http://www.w3.org/Graphics/SVG/1.1/DTD/svg11.dtd">
<svg version="1.1" id="Layer_1" xmlns="http://www.w3.org/2000/svg" xmlns:xlink="http://www.w3.org/1999/xlink" x="0px" y="0px"
	 width="240px" height="60px" viewBox="0 0 240 60" enable-background="new 0 0 240 60" xml:space="preserve">
<g>
	<polygon fill="#FFFFFF" points="119.025,30.744 115.448,37.385 112.663,37.385 112.829,30.744 112.718,30.744 110.872,37.385 
		107.919,37.385 110.664,27.474 115.508,27.474 115.185,33.18 115.303,33.18 118.125,27.474 123.112,27.474 120.356,37.385 
		117.27,37.385 119.147,30.744 	"/>
	<path fill="#FFFFFF" d="M131.51,33.576l0.076-3.798h-0.119l-2.04,3.798H131.51z M130.02,27.475h4.483v9.91h-3.248l0.077-1.771
		h-2.853l-0.927,1.771h-3.005L130.02,27.475z"/>
	<polygon fill="#FFFFFF" points="154.587,29.786 152.459,29.786 153.112,27.475 160.613,27.475 159.971,29.786 157.838,29.786 
		155.723,37.385 152.528,37.385 	"/>
	<polygon fill="#FFFFFF" points="173.473,27.475 177.825,27.475 178.392,33.405 178.479,33.405 180.132,27.475 183.167,27.475 
		180.454,37.385 176.099,37.385 175.7,31.315 175.59,31.315 173.897,37.385 170.763,37.385 	"/>
	<path fill="#FFFFFF" d="M144.508,31.593c0.921,0,1.34-0.457,1.38-1.059c0.04-0.492-0.231-0.748-0.893-0.748h-0.814l-0.503,1.807
		H144.508z M141.625,27.475h4.743c2.289,0,3.029,1.265,2.938,2.504c-0.13,1.89-1.692,2.438-2.492,2.579l-0.006,0.145
		c0.943,0.124,1.309,0.806,1.255,1.603c-0.045,0.645-0.221,1.32-0.282,2.188c-0.023,0.345,0.011,0.763,0.017,0.893h-3.471
		c-0.006-0.051-0.022-0.385-0.006-0.579c0.051-0.84,0.322-1.431,0.385-2.337c0.031-0.407-0.11-0.786-0.769-0.786h-0.844
		l-0.982,3.702h-3.257L141.625,27.475z"/>
	<polygon fill="#FFFFFF" points="164.733,27.475 167.93,27.475 165.225,37.385 161.969,37.385 	"/>
	<polygon fill="#FFFFFF" points="2.754,27.475 5.963,27.475 3.869,35.021 7.035,35.021 6.404,37.385 0,37.385 	"/>
	<polygon fill="#FFFFFF" points="38.87,27.475 42.109,27.475 40.924,31.729 41.009,31.729 44.16,27.475 47.599,27.475 43.713,32.15 
		45.11,37.385 41.7,37.385 40.661,32.992 40.581,32.992 39.358,37.385 36.149,37.385 	"/>
	<polygon fill="#FFFFFF" points="55.171,33.683 53.246,33.683 52.21,37.385 49.006,37.385 51.721,27.474 54.963,27.474 
		53.938,31.179 55.842,31.179 56.861,27.474 60.108,27.474 57.347,37.385 54.146,37.385 	"/>
	<polygon fill="#FFFFFF" points="78.258,27.475 85.004,27.475 84.377,29.786 80.812,29.786 80.412,31.261 83.659,31.261 83,33.621 
		79.751,33.621 79.362,35.021 83.107,35.021 82.452,37.385 75.506,37.385 	"/>
	<polygon fill="#FFFFFF" points="65.917,27.475 72.677,27.475 72.045,29.786 68.46,29.786 68.055,31.261 71.299,31.261 
		70.651,33.621 67.415,33.621 67.03,35.021 70.747,35.021 70.093,37.385 63.152,37.385 	"/>
	<path fill="#FFFFFF" d="M14.938,35.021c1.399,0,2.262-3.523,2.311-4.346c0.031-0.451-0.137-0.882-0.775-0.882
		c-1.448,0-2.25,3.642-2.298,4.366C14.126,34.854,14.552,35.021,14.938,35.021 M16.99,27.342c2.424,0,3.604,1.328,3.465,3.481
		c-0.18,2.628-1.797,6.7-6.021,6.7c-2.341,0-3.628-1.31-3.47-3.484C11.166,31.153,12.928,27.342,16.99,27.342"/>
	<path fill="#FFFFFF" d="M92.276,35.021h0.947c1.315,0,2.348-1.695,2.489-3.857c0.055-0.775-0.23-1.378-1.395-1.378h-0.588
		L92.276,35.021z M91.141,27.475h3.684c3.085,0,4.265,1.72,4.124,3.679c-0.255,3.665-2.735,6.231-6.608,6.231h-3.912L91.141,27.475z
		"/>
	<path fill="#FFFFFF" d="M32.168,33.677c-0.709,2.648-2.756,3.847-5.029,3.847c-2.363,0-3.581-1.36-3.432-3.484
		c0.179-2.504,1.748-6.697,6.034-6.697c1.98,0,3.473,0.724,3.282,2.822c-0.023,0.307-0.122,0.816-0.166,1.016h-2.983
		c0.011-0.061,0.093-0.339,0.107-0.632c0.04-0.566-0.362-0.754-0.748-0.754c-1.479,0-2.279,3.597-2.332,4.374
		c-0.044,0.582,0.277,0.854,0.746,0.854c0.5,0,0.994-0.387,1.456-1.345H32.168z"/>
	<path fill="#FFFFFF" d="M240,21.008h-21.989l5.5-20.15l-18.532,20.15h-86.667l84.493,2.304l-10.933,11.875l12.906-11.828
		l10.302,0.282l-1.476,7.742l-51.047,27.76l50.495-24.895l-3.168,16.816l4.768-17.565L240,21.008z M217.31,11.87l-1.724,9.138
		h-8.247L217.31,11.87z M217.321,23.71l9.857,0.278l-11.667,6.344C216.168,27.953,216.663,26.145,217.321,23.71"/>
</g>
</svg>
