<?xml version="1.0" encoding="utf-8"?>
<!-- Generator: Adobe Illustrator 16.0.3, SVG Export Plug-In . SVG Version: 6.00 Build 0)  -->
<!DOCTYPE svg PUBLIC "-//W3C//DTD SVG 1.1//EN" "http://www.w3.org/Graphics/SVG/1.1/DTD/svg11.dtd">
<svg version="1.1" id="Layer_1" xmlns="http://www.w3.org/2000/svg" xmlns:xlink="http://www.w3.org/1999/xlink" x="0px" y="0px"
	 width="184.076px" height="60px" viewBox="0 0 184.076 60" enable-background="new 0 0 184.076 60" xml:space="preserve">
<g>
	<path fill="#FFFFFF" d="M8.779,37.642H6.396l-2.52-7.1v-1.377h2.246v-4.844H3.242v13.32H0.957V22.358h6.064
		c0.918,0,1.377,0.469,1.377,1.406v5.557c0,0.645-0.218,1.061-0.654,1.25c-0.234,0.098-0.729,0.146-1.484,0.146L8.779,37.642z"/>
	<path fill="#FFFFFF" d="M20.514,37.642h-6.338V22.358h6.279v2.021h-3.994v4.463h3.438v1.982h-3.438v4.795h4.053V37.642z"/>
	<path fill="#FFFFFF" d="M33.4,36.245c0,0.93-0.462,1.396-1.387,1.396h-4.6c-0.918,0-1.377-0.467-1.377-1.396v-3.643h2.285v3.115
		h2.793V32.72l-4.58-4.336c-0.332-0.32-0.498-0.727-0.498-1.221v-3.398c0-0.938,0.459-1.406,1.377-1.406h4.6
		c0.924,0,1.387,0.461,1.387,1.387v3.418h-2.285v-2.881h-2.793v2.764l4.58,4.316c0.332,0.313,0.498,0.725,0.498,1.24V36.245z"/>
	<path fill="#FFFFFF" d="M46.922,36.245c0,0.93-0.462,1.396-1.387,1.396h-4.961c-0.905,0-1.357-0.467-1.357-1.396v-12.48
		c0-0.938,0.453-1.406,1.357-1.406h4.961c0.924,0,1.387,0.469,1.387,1.406V36.245z M44.637,35.679V24.321h-3.135v11.357H44.637z"/>
	<path fill="#FFFFFF" d="M60.404,36.245c0,0.93-0.469,1.396-1.406,1.396h-4.854c-0.924,0-1.387-0.467-1.387-1.396V22.358h2.285
		v13.32h3.076v-13.32h2.285V36.245z"/>
	<path fill="#FFFFFF" d="M74.063,37.642H71.68l-2.52-7.1v-1.377h2.246v-4.844h-2.881v13.32H66.24V22.358h6.064
		c0.918,0,1.377,0.469,1.377,1.406v5.557c0,0.645-0.218,1.061-0.654,1.25c-0.234,0.098-0.729,0.146-1.484,0.146L74.063,37.642z"/>
	<path fill="#FFFFFF" d="M86.979,36.245c0,0.93-0.465,1.396-1.396,1.396h-4.766c-0.905,0-1.357-0.467-1.357-1.396v-12.48
		c0-0.938,0.453-1.406,1.357-1.406h4.766c0.931,0,1.396,0.469,1.396,1.406v3.574h-2.275v-3.018h-2.959v11.357h2.959v-3.213h2.275
		V36.245z"/>
	<path fill="#FFFFFF" d="M99.113,37.642h-6.338V22.358h6.279v2.021h-3.994v4.463h3.438v1.982h-3.438v4.795h4.053V37.642z"/>
	<path fill="#FFFFFF" d="M120.316,36.245c0,0.93-0.465,1.396-1.396,1.396h-4.766c-0.904,0-1.357-0.467-1.357-1.396v-12.48
		c0-0.938,0.453-1.406,1.357-1.406h4.766c0.932,0,1.396,0.469,1.396,1.406v3.574h-2.275v-3.018h-2.959v11.357h2.959v-3.213h2.275
		V36.245z"/>
	<path fill="#FFFFFF" d="M132.451,37.642h-6.338V22.358h6.279v2.021h-3.994v4.463h3.438v1.982h-3.438v4.795h4.053V37.642z"/>
	<path fill="#FFFFFF" d="M145.758,37.642h-2.002l-3.662-9.619c0.098,0.469,0.146,0.836,0.146,1.104v8.516h-2.227V22.358h2.002
		l3.662,9.424c-0.098-0.469-0.146-0.838-0.146-1.104v-8.32h2.227V37.642z"/>
	<path fill="#FFFFFF" d="M158.234,24.38h-2.52v13.262h-2.275V24.38h-2.52v-2.021h7.314V24.38z"/>
	<path fill="#FFFFFF" d="M169.734,37.642h-6.338V22.358h6.279v2.021h-3.994v4.463h3.438v1.982h-3.438v4.795h4.053V37.642z"/>
	<path fill="#FFFFFF" d="M183.119,37.642h-2.383l-2.52-7.1v-1.377h2.246v-4.844h-2.881v13.32h-2.285V22.358h6.064
		c0.918,0,1.377,0.469,1.377,1.406v5.557c0,0.645-0.219,1.061-0.654,1.25c-0.234,0.098-0.729,0.146-1.484,0.146L183.119,37.642z"/>
</g>
</svg>
